<mxfile host="app.diagrams.net" modified="2021-12-06T14:25:35.904Z" agent="5.0 (Windows NT 10.0; Win64; x64) AppleWebKit/537.36 (KHTML, like Gecko) Chrome/96.0.4664.45 Safari/537.36" etag="WG-YUfOvLlJNeUAV-qpt" version="15.9.1" type="github">
  <diagram id="C5RBs43oDa-KdzZeNtuy" name="Page-1">
    <mxGraphModel dx="2048" dy="672" grid="1" gridSize="10" guides="1" tooltips="1" connect="1" arrows="1" fold="1" page="1" pageScale="1" pageWidth="827" pageHeight="1169" math="0" shadow="0">
      <root>
        <mxCell id="WIyWlLk6GJQsqaUBKTNV-0" />
        <mxCell id="WIyWlLk6GJQsqaUBKTNV-1" parent="WIyWlLk6GJQsqaUBKTNV-0" />
        <mxCell id="NhE3N3XNDNQcraXamMx5-6" style="edgeStyle=orthogonalEdgeStyle;rounded=0;orthogonalLoop=1;jettySize=auto;html=1;exitX=0.5;exitY=1;exitDx=0;exitDy=0;entryX=0.5;entryY=0;entryDx=0;entryDy=0;" edge="1" parent="WIyWlLk6GJQsqaUBKTNV-1" source="NhE3N3XNDNQcraXamMx5-0" target="NhE3N3XNDNQcraXamMx5-2">
          <mxGeometry relative="1" as="geometry" />
        </mxCell>
        <mxCell id="NhE3N3XNDNQcraXamMx5-0" value="Attend near" style="rounded=1;whiteSpace=wrap;html=1;" vertex="1" parent="WIyWlLk6GJQsqaUBKTNV-1">
          <mxGeometry x="80" y="40" width="120" height="60" as="geometry" />
        </mxCell>
        <mxCell id="NhE3N3XNDNQcraXamMx5-1" value="" style="rounded=1;whiteSpace=wrap;html=1;" vertex="1" parent="WIyWlLk6GJQsqaUBKTNV-1">
          <mxGeometry x="-480" y="90" width="120" height="60" as="geometry" />
        </mxCell>
        <mxCell id="NhE3N3XNDNQcraXamMx5-10" style="edgeStyle=orthogonalEdgeStyle;rounded=0;orthogonalLoop=1;jettySize=auto;html=1;exitX=0.5;exitY=1;exitDx=0;exitDy=0;entryX=0.5;entryY=0;entryDx=0;entryDy=0;" edge="1" parent="WIyWlLk6GJQsqaUBKTNV-1" source="NhE3N3XNDNQcraXamMx5-2" target="NhE3N3XNDNQcraXamMx5-3">
          <mxGeometry relative="1" as="geometry" />
        </mxCell>
        <mxCell id="NhE3N3XNDNQcraXamMx5-2" value="Evaluate-safety: unsafe" style="rounded=1;whiteSpace=wrap;html=1;" vertex="1" parent="WIyWlLk6GJQsqaUBKTNV-1">
          <mxGeometry x="80" y="140" width="120" height="60" as="geometry" />
        </mxCell>
        <mxCell id="NhE3N3XNDNQcraXamMx5-8" style="edgeStyle=orthogonalEdgeStyle;rounded=0;orthogonalLoop=1;jettySize=auto;html=1;exitX=0;exitY=0.5;exitDx=0;exitDy=0;entryX=1;entryY=0.5;entryDx=0;entryDy=0;" edge="1" parent="WIyWlLk6GJQsqaUBKTNV-1" source="NhE3N3XNDNQcraXamMx5-3" target="NhE3N3XNDNQcraXamMx5-5">
          <mxGeometry relative="1" as="geometry" />
        </mxCell>
        <mxCell id="NhE3N3XNDNQcraXamMx5-13" style="edgeStyle=orthogonalEdgeStyle;rounded=0;orthogonalLoop=1;jettySize=auto;html=1;exitX=0.5;exitY=1;exitDx=0;exitDy=0;entryX=0.5;entryY=0;entryDx=0;entryDy=0;" edge="1" parent="WIyWlLk6GJQsqaUBKTNV-1" source="NhE3N3XNDNQcraXamMx5-3" target="NhE3N3XNDNQcraXamMx5-11">
          <mxGeometry relative="1" as="geometry" />
        </mxCell>
        <mxCell id="NhE3N3XNDNQcraXamMx5-3" value="Process near - attend far" style="rounded=1;whiteSpace=wrap;html=1;" vertex="1" parent="WIyWlLk6GJQsqaUBKTNV-1">
          <mxGeometry x="80" y="240" width="120" height="60" as="geometry" />
        </mxCell>
        <mxCell id="NhE3N3XNDNQcraXamMx5-9" style="edgeStyle=orthogonalEdgeStyle;rounded=0;orthogonalLoop=1;jettySize=auto;html=1;exitX=0.5;exitY=0;exitDx=0;exitDy=0;entryX=0;entryY=0.5;entryDx=0;entryDy=0;" edge="1" parent="WIyWlLk6GJQsqaUBKTNV-1" source="NhE3N3XNDNQcraXamMx5-5" target="NhE3N3XNDNQcraXamMx5-0">
          <mxGeometry relative="1" as="geometry" />
        </mxCell>
        <mxCell id="NhE3N3XNDNQcraXamMx5-5" value="Process without old" style="rounded=1;whiteSpace=wrap;html=1;" vertex="1" parent="WIyWlLk6GJQsqaUBKTNV-1">
          <mxGeometry x="-110" y="240" width="120" height="60" as="geometry" />
        </mxCell>
        <mxCell id="NhE3N3XNDNQcraXamMx5-14" style="edgeStyle=orthogonalEdgeStyle;rounded=0;orthogonalLoop=1;jettySize=auto;html=1;exitX=0.5;exitY=1;exitDx=0;exitDy=0;entryX=0.5;entryY=0;entryDx=0;entryDy=0;" edge="1" parent="WIyWlLk6GJQsqaUBKTNV-1" source="NhE3N3XNDNQcraXamMx5-11" target="NhE3N3XNDNQcraXamMx5-12">
          <mxGeometry relative="1" as="geometry" />
        </mxCell>
        <mxCell id="NhE3N3XNDNQcraXamMx5-11" value="Process far" style="rounded=1;whiteSpace=wrap;html=1;" vertex="1" parent="WIyWlLk6GJQsqaUBKTNV-1">
          <mxGeometry x="80" y="340" width="120" height="60" as="geometry" />
        </mxCell>
        <mxCell id="NhE3N3XNDNQcraXamMx5-15" style="edgeStyle=orthogonalEdgeStyle;rounded=0;orthogonalLoop=1;jettySize=auto;html=1;exitX=0;exitY=0.5;exitDx=0;exitDy=0;entryX=0;entryY=0.5;entryDx=0;entryDy=0;" edge="1" parent="WIyWlLk6GJQsqaUBKTNV-1" source="NhE3N3XNDNQcraXamMx5-12" target="NhE3N3XNDNQcraXamMx5-0">
          <mxGeometry relative="1" as="geometry">
            <Array as="points">
              <mxPoint x="-140" y="470" />
              <mxPoint x="-140" y="70" />
            </Array>
          </mxGeometry>
        </mxCell>
        <mxCell id="NhE3N3XNDNQcraXamMx5-12" value="Loop stable car" style="rounded=1;whiteSpace=wrap;html=1;" vertex="1" parent="WIyWlLk6GJQsqaUBKTNV-1">
          <mxGeometry x="80" y="440" width="120" height="60" as="geometry" />
        </mxCell>
        <mxCell id="NhE3N3XNDNQcraXamMx5-16" value="&lt;div style=&quot;text-align: justify&quot;&gt;&lt;span&gt;This is necessary in the first iteration as the loop requires a delta value regarding near angle. To calculate a delta the model needs two values, so it has to process near twice the very first iteration of the loop&lt;/span&gt;&lt;/div&gt;" style="text;html=1;strokeColor=none;fillColor=none;align=center;verticalAlign=middle;whiteSpace=wrap;rounded=0;" vertex="1" parent="WIyWlLk6GJQsqaUBKTNV-1">
          <mxGeometry x="-440" y="290" width="170" height="140" as="geometry" />
        </mxCell>
        <mxCell id="NhE3N3XNDNQcraXamMx5-18" value="" style="endArrow=none;dashed=1;html=1;rounded=0;exitX=1;exitY=0.5;exitDx=0;exitDy=0;entryX=0;entryY=0.5;entryDx=0;entryDy=0;" edge="1" parent="WIyWlLk6GJQsqaUBKTNV-1" source="NhE3N3XNDNQcraXamMx5-16" target="NhE3N3XNDNQcraXamMx5-5">
          <mxGeometry width="50" height="50" relative="1" as="geometry">
            <mxPoint x="-230" y="350" as="sourcePoint" />
            <mxPoint x="-180" y="300" as="targetPoint" />
          </mxGeometry>
        </mxCell>
      </root>
    </mxGraphModel>
  </diagram>
</mxfile>
